<?xml version="1.0" encoding="UTF-8"?>
<svg xmlns="http://www.w3.org/2000/svg" xmlns:xlink="http://www.w3.org/1999/xlink" width="20px" height="20px" viewBox="0 0 20 20" version="1.1">
<g id="surface1">
<path style=" stroke:none;fill-rule:nonzero;fill:rgb(0%,0%,0%);fill-opacity:1;" d="M 6.039062 1.210938 C -0.125 4.085938 -1.539062 12.289062 3.375 16.960938 C 9.5 22.75 19.585938 18.460938 19.585938 10 C 19.585938 6.085938 17.210938 2.539062 13.664062 1.085938 C 11.585938 0.210938 8.085938 0.25 6.039062 1.210938 Z M 6.914062 4.210938 C 7.335938 4.914062 6.375 5.710938 5.789062 5.125 C 5.289062 4.625 5.625 3.75 6.25 3.75 C 6.460938 3.75 6.75 3.960938 6.914062 4.210938 Z M 6.664062 10.210938 C 6.664062 12.585938 6.5 14.164062 6.25 14.164062 C 6 14.164062 5.835938 12.585938 5.835938 10.210938 C 5.835938 7.835938 6 6.25 6.25 6.25 C 6.5 6.25 6.664062 7.835938 6.664062 10.210938 Z M 14.875 7.664062 C 16.25 9.289062 16.164062 11.375 14.625 12.960938 C 13.539062 14 13.085938 14.164062 11.085938 14.164062 L 8.75 14.164062 L 8.75 6.164062 L 11.335938 6.335938 C 13.460938 6.5 14.039062 6.710938 14.875 7.664062 Z M 14.875 7.664062 "/>
<path style=" stroke:none;fill-rule:nonzero;fill:rgb(0%,0%,0%);fill-opacity:1;" d="M 9.875 7.335938 C 9.710938 7.5 9.585938 8.914062 9.585938 10.5 L 9.585938 13.335938 L 10.875 13.335938 C 12.210938 13.335938 13.75 12.710938 14.25 11.914062 C 14.835938 11.085938 14.585938 8.875 13.875 8.210938 C 13 7.460938 10.335938 6.875 9.875 7.335938 Z M 9.875 7.335938 "/>
</g>
</svg>
