<?xml version="1.0" encoding="UTF-8"?>
<svg xmlns="http://www.w3.org/2000/svg" xmlns:xlink="http://www.w3.org/1999/xlink" width="20px" height="20px" viewBox="0 0 20 20" version="1.1">
<g id="surface1">
<path style=" stroke:none;fill-rule:nonzero;fill:rgb(0%,0%,0%);fill-opacity:1;" d="M 8.082031 1.457031 C 7.5 2.375 7.457031 2.707031 7.875 3.667969 C 8.332031 4.667969 8.457031 4.707031 8.792969 4.042969 C 9.332031 3.125 10.667969 3.125 11.207031 4.042969 C 11.542969 4.707031 11.667969 4.667969 12.125 3.667969 C 12.832031 2.082031 11.75 0.417969 10 0.417969 C 9.125 0.417969 8.542969 0.75 8.082031 1.457031 Z M 8.082031 1.457031 "/>
<path style=" stroke:none;fill-rule:nonzero;fill:rgb(0%,0%,0%);fill-opacity:1;" d="M 3.207031 3.25 C 1.582031 5.042969 2.707031 7.082031 5.417969 7.207031 L 7.292969 7.292969 L 7.207031 5.417969 C 7.125 3.417969 6.332031 2.5 4.792969 2.5 C 4.292969 2.5 3.582031 2.832031 3.207031 3.25 Z M 3.207031 3.25 "/>
<path style=" stroke:none;fill-rule:nonzero;fill:rgb(0%,0%,0%);fill-opacity:1;" d="M 13.625 3.042969 C 13.125 3.375 12.875 4.207031 12.792969 5.417969 L 12.707031 7.292969 L 14.582031 7.207031 C 15.792969 7.125 16.625 6.875 16.957031 6.375 C 18.625 4.125 15.875 1.375 13.625 3.042969 Z M 13.625 3.042969 "/>
<path style=" stroke:none;fill-rule:nonzero;fill:rgb(0%,0%,0%);fill-opacity:1;" d="M 1.332031 8.167969 C -0.917969 9.707031 1.167969 13.25 3.667969 12.125 C 4.667969 11.667969 4.707031 11.542969 4.042969 11.207031 C 3.125 10.667969 3.125 9.207031 4 8.875 C 4.625 8.625 4.625 8.542969 3.917969 8.042969 C 2.957031 7.332031 2.457031 7.375 1.332031 8.167969 Z M 1.332031 8.167969 "/>
<path style=" stroke:none;fill-rule:nonzero;fill:rgb(0%,0%,0%);fill-opacity:1;" d="M 16.082031 8.042969 C 15.375 8.542969 15.375 8.625 16 8.875 C 16.875 9.207031 16.875 10.667969 15.957031 11.207031 C 15.292969 11.542969 15.332031 11.667969 16.332031 12.125 C 18.832031 13.25 20.917969 9.707031 18.667969 8.167969 C 17.542969 7.375 17.042969 7.332031 16.082031 8.042969 Z M 16.082031 8.042969 "/>
<path style=" stroke:none;fill-rule:nonzero;fill:rgb(0%,0%,0%);fill-opacity:1;" d="M 4.375 12.792969 C 2.542969 13.25 1.875 15.582031 3.25 16.792969 C 5.042969 18.417969 7.082031 17.292969 7.207031 14.582031 C 7.292969 12.832031 7.207031 12.707031 6.25 12.625 C 5.667969 12.625 4.832031 12.667969 4.375 12.792969 Z M 4.375 12.792969 "/>
<path style=" stroke:none;fill-rule:nonzero;fill:rgb(0%,0%,0%);fill-opacity:1;" d="M 12.707031 12.875 C 12.207031 13.707031 12.957031 16.667969 13.75 17.082031 C 16.207031 18.375 18.625 15.792969 17 13.625 C 16.332031 12.792969 13.125 12.207031 12.707031 12.875 Z M 12.707031 12.875 "/>
<path style=" stroke:none;fill-rule:nonzero;fill:rgb(0%,0%,0%);fill-opacity:1;" d="M 7.875 16.332031 C 7.457031 17.292969 7.5 17.625 8.082031 18.542969 C 9.625 20.917969 13.292969 18.957031 12.125 16.332031 C 11.667969 15.332031 11.542969 15.292969 11.207031 15.957031 C 10.667969 16.875 9.332031 16.875 8.792969 15.957031 C 8.457031 15.292969 8.332031 15.332031 7.875 16.332031 Z M 7.875 16.332031 "/>
</g>
</svg>
