<?xml version="1.0" standalone="no"?>
<!DOCTYPE svg PUBLIC "-//W3C//DTD SVG 20010904//EN"
 "http://www.w3.org/TR/2001/REC-SVG-20010904/DTD/svg10.dtd">
<svg version="1.0" xmlns="http://www.w3.org/2000/svg"
 width="48.000000pt" height="48.000000pt" viewBox="0 0 48.000000 48.000000"
 preserveAspectRatio="xMidYMid meet">

<g transform="translate(0.000000,48.000000) scale(0.100000,-0.100000)"
fill="#000000" stroke="none">
<path d="M145 451 c-148 -69 -182 -266 -64 -378 147 -139 389 -36 389 167 0
94 -57 179 -142 214 -50 21 -134 20 -183 -3z m21 -72 c10 -17 -13 -36 -27 -22
-12 12 -4 33 11 33 5 0 12 -5 16 -11z m-6 -144 c0 -57 -4 -95 -10 -95 -6 0
-10 38 -10 95 0 57 4 95 10 95 6 0 10 -38 10 -95z m197 61 c33 -39 31 -89 -6
-127 -26 -25 -37 -29 -85 -29 l-56 0 0 96 0 96 62 -4 c51 -4 65 -9 85 -32z"/>
<path d="M237 304 c-4 -4 -7 -38 -7 -76 l0 -68 31 0 c32 0 69 15 81 34 14 20
8 73 -9 89 -21 18 -85 32 -96 21z"/>
</g>
</svg>
