<?xml version="1.0" standalone="no"?>
<!DOCTYPE svg PUBLIC "-//W3C//DTD SVG 20010904//EN"
 "http://www.w3.org/TR/2001/REC-SVG-20010904/DTD/svg10.dtd">
<svg version="1.0" xmlns="http://www.w3.org/2000/svg"
 width="48.000000pt" height="48.000000pt" viewBox="0 0 48.000000 48.000000"
 preserveAspectRatio="xMidYMid meet">

<g transform="translate(0.000000,48.000000) scale(0.100000,-0.100000)"
fill="#000000" stroke="none">
<path d="M194 445 c-14 -22 -15 -30 -5 -53 11 -24 14 -25 22 -9 13 22 45 22
58 0 8 -16 11 -15 22 9 17 38 -9 78 -51 78 -21 0 -35 -8 -46 -25z"/>
<path d="M77 402 c-39 -43 -12 -92 53 -95 l45 -2 -2 45 c-2 48 -21 70 -58 70
-12 0 -29 -8 -38 -18z"/>
<path d="M327 407 c-12 -8 -18 -28 -20 -57 l-2 -45 45 2 c29 2 49 8 57 20 40
54 -26 120 -80 80z"/>
<path d="M32 284 c-54 -37 -4 -122 56 -95 24 11 25 14 9 22 -22 13 -22 48 -1
56 15 6 15 8 -2 20 -23 17 -35 16 -62 -3z"/>
<path d="M386 287 c-17 -12 -17 -14 -2 -20 21 -8 21 -43 -1 -56 -16 -8 -15
-11 9 -22 60 -27 110 58 56 95 -27 19 -39 20 -62 3z"/>
<path d="M105 173 c-44 -11 -60 -67 -27 -96 43 -39 92 -12 95 53 2 42 0 45
-23 47 -14 0 -34 -1 -45 -4z"/>
<path d="M305 171 c-12 -20 6 -91 25 -101 59 -31 117 31 78 83 -16 20 -93 34
-103 18z"/>
<path d="M189 88 c-10 -23 -9 -31 5 -53 37 -57 125 -10 97 53 -11 24 -14 25
-22 9 -13 -22 -45 -22 -58 0 -8 16 -11 15 -22 -9z"/>
</g>
</svg>
